<?xml version="1.0" encoding="utf-8"?>
<!-- Generator: Adobe Illustrator 25.4.1, SVG Export Plug-In . SVG Version: 6.00 Build 0)  -->
<svg version="1.0" id="Layer_1" xmlns="http://www.w3.org/2000/svg" xmlns:xlink="http://www.w3.org/1999/xlink" x="0px" y="0px"
	 viewBox="0 0 253.9 189.8" style="enable-background:new 0 0 253.9 189.8;" xml:space="preserve">
<style type="text/css">
	.st0{fill:#8F9092;}
	.st1{fill:#DEDEDE;}
	.st2{fill:#006d40;}
	.st3{fill-rule:evenodd;clip-rule:evenodd;fill:#006d40;}
</style>
<symbol  id="New_Symbol" viewBox="-45.2 -11.9 90.4 23.9">
	<path class="st0" d="M-44.2-11.4l4.5,6.5l0,0v-6.5h0.8v7.7h-1l-4.4-6.6l0,0v6.6h-0.8v-7.7H-44.2z"/>
	<path class="st0" d="M-33.6-6.8V-7c0-0.9-0.5-1.3-1.4-1.3c-0.6,0-1.1,0.2-1.5,0.6l-0.4-0.5c0.5-0.5,1.3-0.8,2-0.7
		c0.5,0,1,0.1,1.4,0.5c0.4,0.3,0.6,0.9,0.5,1.4v2.2c0,0.4,0,0.8,0.1,1.1h-0.7c0-0.3-0.1-0.6-0.1-0.8l0,0c-0.4,0.6-1.1,1-1.8,1
		c-0.4,0-0.9-0.1-1.2-0.4c-0.4-0.3-0.6-0.7-0.5-1.2c0-0.2,0-0.5,0.1-0.7c0.1-0.2,0.2-0.4,0.4-0.5c0.2-0.1,0.4-0.2,0.6-0.3
		c0.2-0.1,0.5-0.1,0.8-0.2c0.3,0,0.6-0.1,0.8-0.1L-33.6-6.8z M-33.6-6.3h-0.2c-0.3,0-0.7,0-0.9,0c-0.3,0-0.5,0.1-0.8,0.2
		C-35.8-6-36-5.9-36.2-5.7c-0.1,0.2-0.2,0.4-0.2,0.6c0,0.3,0.1,0.6,0.4,0.7c0.3,0.2,0.5,0.2,0.8,0.2c0.5,0,0.9-0.2,1.2-0.5
		c0.3-0.3,0.4-0.8,0.4-1.2L-33.6-6.3z"/>
	<path class="st0" d="M-28.8-8.8v0.6h-1.4v3c0,0.3,0,0.5,0.2,0.7c0.2,0.1,0.4,0.2,0.6,0.2c0.2,0,0.4-0.1,0.6-0.2v0.6
		c-0.3,0.1-0.6,0.2-0.9,0.1c-0.3,0-0.7-0.1-0.9-0.3C-30.9-4.2-31-4.6-31-5v-3.2h-1v-0.6h1v-1.4h0.8v1.4H-28.8z"/>
	<path class="st0" d="M-26.7-11.1c0.1,0.1,0.2,0.2,0.1,0.4c0,0.1-0.1,0.3-0.1,0.4c-0.1,0.1-0.2,0.2-0.4,0.2c-0.1,0-0.3-0.1-0.4-0.2
		c-0.1-0.1-0.2-0.2-0.2-0.4c0-0.1,0.1-0.3,0.2-0.4c0.1-0.1,0.2-0.2,0.4-0.2C-27-11.3-26.8-11.2-26.7-11.1z M-26.7-8.8v5.1h-0.7v-5.1
		H-26.7z"/>
	<path class="st0" d="M-20.4-8.2c0.5,0.5,0.8,1.2,0.8,1.9c0,0.7-0.3,1.4-0.8,1.9c-1.1,1-2.8,1-3.9,0c-0.5-0.5-0.8-1.2-0.8-1.9
		c0-0.7,0.3-1.4,0.8-1.9C-23.2-9.2-21.5-9.2-20.4-8.2z M-20.9-4.8c0.4-0.4,0.5-0.9,0.5-1.5c0-0.5-0.2-1.1-0.5-1.5
		c-0.4-0.4-0.9-0.6-1.4-0.6c-0.5,0-1,0.2-1.4,0.6c-0.4,0.4-0.6,0.9-0.5,1.5c0,0.5,0.2,1.1,0.5,1.4c0.4,0.4,0.9,0.6,1.4,0.6
		C-21.8-4.2-21.3-4.4-20.9-4.8z"/>
	<path class="st0" d="M-18-8.8h0.7c0,0.4,0,0.7,0,0.9l0,0c0.2-0.3,0.4-0.6,0.7-0.7c0.3-0.2,0.6-0.3,1-0.3c0.5,0,1.1,0.2,1.4,0.6
		c0.3,0.4,0.5,1,0.5,1.5v3.1h-0.7v-2.8c0-0.5-0.1-0.9-0.3-1.3c-0.3-0.3-0.7-0.5-1.1-0.5c-0.4,0-0.8,0.2-1.1,0.5
		c-0.3,0.4-0.4,1-0.4,1.5v2.6h-0.7v-4C-17.9-8.1-17.9-8.5-18-8.8z"/>
	<path class="st0" d="M-8.3-6.8V-7c0-0.9-0.5-1.3-1.4-1.3c-0.6,0-1.1,0.2-1.5,0.6l-0.4-0.5c0.5-0.5,1.3-0.8,2-0.7
		c0.5,0,1,0.2,1.4,0.5c0.4,0.3,0.6,0.9,0.6,1.4v2.2c0,0.4,0,0.8,0.1,1.1h-0.6c0-0.3-0.1-0.6-0.1-0.8l0,0c-0.4,0.6-1.1,1-1.8,1
		c-0.4,0-0.9-0.1-1.2-0.4c-0.4-0.3-0.6-0.7-0.5-1.2c0-0.2,0-0.5,0.1-0.7c0.1-0.2,0.2-0.3,0.4-0.5c0.2-0.1,0.4-0.2,0.6-0.3
		c0.2-0.1,0.5-0.1,0.8-0.2c0.3,0,0.6-0.1,0.8-0.1L-8.3-6.8z M-8.3-6.3h-0.2c-0.3,0-0.7,0-0.9,0c-0.3,0-0.6,0.1-0.8,0.2
		c-0.2,0.1-0.5,0.2-0.6,0.3c-0.2,0.1-0.2,0.4-0.2,0.6c0,0.3,0.1,0.6,0.3,0.7c0.6,0.4,1.5,0.3,2-0.3c0.3-0.3,0.4-0.8,0.4-1.2
		L-8.3-6.3z"/>
	<path class="st0" d="M-4.9-11.9v8.2h-0.7v-8.2H-4.9z"/>
	<path class="st0" d="M0.9-7.3v3.6H0.1v-7.7h2.3c0.7,0,1.3,0.1,1.9,0.5C4.8-10.6,5-10,5-9.4c0,0.5-0.2,1-0.5,1.4
		C4-7.6,3.5-7.4,3-7.4l2.2,3.7h-1L2.1-7.3H0.9z M0.9-10.7V-8h1.4c0.5,0,1-0.1,1.5-0.3c0.3-0.2,0.5-0.6,0.5-1c0-0.9-0.7-1.4-1.9-1.4
		L0.9-10.7z"/>
	<path class="st0" d="M11.2-6.4c0,0.1,0,0.2,0,0.3H6.9c0,0.5,0.2,1,0.5,1.3c0.3,0.4,0.8,0.6,1.3,0.5c0.4,0,0.7-0.1,1-0.3
		c0.3-0.2,0.5-0.4,0.7-0.6L11-4.7C10.5-4,9.7-3.6,8.8-3.6c-0.7,0-1.4-0.3-1.9-0.8C6.4-4.9,6.2-5.6,6.2-6.3c0-0.7,0.2-1.4,0.7-1.9
		C7.4-8.7,8-9,8.7-8.9c0.7,0,1.3,0.2,1.8,0.7C11-7.7,11.2-7.1,11.2-6.4z M6.9-6.7h3.5c0-0.4-0.2-0.9-0.5-1.2
		C9.6-8.2,9.2-8.3,8.7-8.3c-0.5,0-0.9,0.2-1.2,0.5C7.2-7.5,7-7.1,6.9-6.7z"/>
	<path class="st0" d="M16.1-8l-0.6,0.4c-0.1-0.2-0.3-0.4-0.5-0.5c-0.2-0.1-0.5-0.2-0.8-0.2c-0.3,0-0.5,0.1-0.8,0.2
		c-0.2,0.1-0.3,0.4-0.3,0.6c0,0.2,0.1,0.4,0.3,0.5c0.3,0.2,0.6,0.3,0.9,0.3c0.5,0.1,1,0.3,1.4,0.5c0.3,0.2,0.4,0.6,0.4,0.9
		c0,0.5-0.2,1-0.6,1.2c-1.1,0.7-2.6,0.4-3.4-0.6L12.9-5c0.1,0.2,0.3,0.4,0.6,0.6c0.5,0.3,1.2,0.3,1.7,0c0.2-0.2,0.3-0.4,0.3-0.7
		c0-0.2-0.1-0.5-0.3-0.6C14.8-5.9,14.4-6,14-6.1c-0.2,0-0.3-0.1-0.5-0.1c-0.2-0.1-0.3-0.1-0.5-0.2c-0.2-0.1-0.3-0.2-0.4-0.4
		c-0.1-0.2-0.1-0.4-0.1-0.6c0-0.4,0.2-0.8,0.5-1.1c0.4-0.3,0.8-0.4,1.3-0.4c0.3,0,0.7,0.1,1,0.2C15.7-8.6,15.9-8.3,16.1-8z"/>
	<path class="st0" d="M22.4-6.4c0,0.2,0,0.3,0,0.3h-4.2c0,0.5,0.2,1,0.5,1.3c0.3,0.4,0.8,0.5,1.3,0.5c0.7,0,1.3-0.3,1.6-0.9l0.6,0.4
		C21.7-4,20.9-3.6,20-3.6c-0.7,0-1.4-0.3-1.9-0.8c-0.5-0.5-0.8-1.2-0.8-1.9c0-0.7,0.2-1.4,0.7-1.9C18.6-8.7,19.3-9,20-8.9
		c0.7-0.1,1.4,0.2,1.8,0.7C22.2-7.7,22.4-7.1,22.4-6.4z M18.2-6.7h3.5c0-0.4-0.2-0.9-0.5-1.2c-0.3-0.3-0.8-0.5-1.2-0.5
		c-0.4,0-0.9,0.2-1.2,0.5C18.5-7.5,18.2-7.1,18.2-6.7z"/>
	<path class="st0" d="M27.2-6.8V-7c0-0.9-0.4-1.3-1.4-1.3c-0.6,0-1.1,0.2-1.5,0.6L24-8.2c0.5-0.5,1.3-0.8,2-0.7c0.5,0,1,0.1,1.4,0.5
		c0.4,0.3,0.6,0.9,0.6,1.4v2.2c0,0.4,0,0.8,0.1,1.1h-0.7c0-0.3-0.1-0.6-0.1-0.8l0,0c-0.4,0.6-1.1,1-1.8,1c-0.4,0-0.9-0.1-1.2-0.4
		c-0.4-0.3-0.6-0.7-0.5-1.2c0-0.2,0-0.5,0.2-0.7C23.9-6,24-6.2,24.2-6.3c0.2-0.1,0.4-0.2,0.6-0.3c0.2-0.1,0.5-0.2,0.8-0.2
		c0.3,0,0.6-0.1,0.8-0.1L27.2-6.8z M27.2-6.3H27c-0.3,0-0.7,0-0.9,0c-0.3,0-0.5,0.1-0.8,0.2c-0.2,0.1-0.5,0.2-0.6,0.3
		c-0.1,0.2-0.2,0.4-0.2,0.6c0,0.3,0.1,0.6,0.4,0.8c0.3,0.2,0.6,0.2,0.8,0.2c0.4,0,0.9-0.2,1.2-0.5c0.3-0.3,0.4-0.8,0.4-1.2L27.2-6.3
		z"/>
	<path class="st0" d="M29.9-7.7c0-0.4,0-0.8,0-1.1h0.7c0,0.4,0,0.6,0,0.9l0,0c0.1-0.3,0.4-0.5,0.7-0.7c0.3-0.2,0.6-0.3,1-0.3
		c0.2,0,0.3,0,0.5,0l-0.1,0.7c-0.2-0.1-0.3-0.1-0.5-0.1c-0.4,0-0.8,0.2-1.1,0.5c-0.3,0.4-0.5,0.9-0.4,1.4v2.7h-0.7L29.9-7.7z"/>
	<path class="st0" d="M38-8.1l-0.6,0.4c-0.1-0.2-0.3-0.4-0.5-0.5c-0.2-0.1-0.5-0.2-0.8-0.2c-0.5,0-1,0.2-1.4,0.6
		c-0.4,0.4-0.6,0.9-0.5,1.5c0,0.5,0.2,1.1,0.5,1.5c0.4,0.4,0.9,0.6,1.4,0.6c0.6,0,1.1-0.3,1.4-0.7L38-4.5c-0.5,0.6-1.2,0.9-1.9,0.9
		c-0.7,0-1.5-0.2-2-0.8c-0.5-0.5-0.8-1.2-0.8-1.9c0-0.7,0.2-1.4,0.8-1.9c0.5-0.5,1.3-0.8,2-0.8c0.4,0,0.7,0.1,1.1,0.2
		C37.5-8.6,37.8-8.4,38-8.1z"/>
	<path class="st0" d="M40.1-7.9L40.1-7.9c0.1-0.3,0.4-0.6,0.7-0.7c0.3-0.2,0.7-0.3,1.1-0.3c0.5,0,1.1,0.2,1.4,0.6
		c0.3,0.4,0.5,1,0.5,1.5v3.1H43v-2.8c0-0.5-0.1-0.9-0.3-1.3c-0.3-0.3-0.7-0.5-1.1-0.5c-0.4,0-0.8,0.2-1.1,0.5
		c-0.3,0.4-0.5,0.9-0.4,1.5v2.6h-0.7v-8.2h0.7L40.1-7.9z"/>
	<path class="st0" d="M-44.2,1.6l4.5,6.5l0,0V1.6h0.8v7.7h-1l-4.5-6.6l0,0v6.6h-0.8V1.6H-44.2z"/>
	<path class="st0" d="M-32.4,9.3h-0.7c0-0.4,0-0.6,0-0.9l0,0c-0.2,0.3-0.4,0.6-0.7,0.7c-0.3,0.2-0.6,0.3-1,0.3
		c-0.5,0-1.1-0.2-1.4-0.6c-0.3-0.4-0.5-1-0.5-1.5V4.2h0.7v2.9c0,0.5,0.1,0.9,0.3,1.3c0.3,0.3,0.7,0.5,1.1,0.5c0.4,0,0.8-0.2,1.1-0.5
		c0.3-0.4,0.5-1,0.4-1.5V4.2h0.7v4C-32.5,8.6-32.5,9-32.4,9.3z"/>
	<path class="st0" d="M-26.2,5l-0.6,0.4c-0.1-0.2-0.3-0.4-0.5-0.5c-0.2-0.1-0.5-0.2-0.8-0.2c-0.5,0-1,0.2-1.4,0.6
		C-29.8,5.7-30,6.2-30,6.8c0,0.5,0.2,1.1,0.5,1.5c0.4,0.4,0.9,0.6,1.4,0.6c0.5,0,1.1-0.2,1.4-0.7l0.5,0.4c-0.5,0.6-1.2,0.9-1.9,0.9
		c-0.7,0-1.5-0.2-2-0.8c-0.5-0.5-0.8-1.2-0.8-1.9c0-0.7,0.2-1.4,0.8-1.9c0.5-0.5,1.3-0.8,2-0.8c0.4,0,0.7,0.1,1,0.2
		C-26.7,4.5-26.4,4.7-26.2,5z"/>
	<path class="st0" d="M-24.1,1.1v8.2h-0.7V1.1H-24.1z"/>
	<path class="st0" d="M-17.4,6.6c0,0.1,0,0.3,0,0.4h-4.2c0,0.5,0.2,1,0.6,1.3c0.3,0.4,0.8,0.6,1.3,0.5c0.3,0,0.7-0.1,1-0.2
		c0.3-0.2,0.5-0.4,0.7-0.6l0.5,0.4c-0.5,0.7-1.3,1.1-2.2,1.1c-0.7,0-1.4-0.3-1.9-0.8c-1-1.1-1-2.7,0-3.8c0.5-0.5,1.1-0.8,1.8-0.8
		c0.7,0,1.3,0.2,1.8,0.7C-17.6,5.3-17.4,5.9-17.4,6.6z M-21.6,6.4h3.4c0-0.4-0.2-0.9-0.5-1.2c-0.3-0.3-0.8-0.5-1.2-0.5
		c-0.5,0-0.9,0.2-1.2,0.5C-21.4,5.5-21.6,5.9-21.6,6.4z"/>
	<path class="st0" d="M-12.6,6.2V6.1c0.1-0.6-0.4-1.2-1-1.3c-0.1,0-0.2,0-0.3,0c-0.6,0-1.1,0.2-1.5,0.6l-0.4-0.5
		c0.5-0.5,1.3-0.8,2-0.7c0.5,0,1,0.1,1.4,0.5C-12,5-11.8,5.5-11.9,6v2.2c0,0.4,0,0.8,0.1,1.1h-0.7c0-0.3-0.1-0.5-0.1-0.8l0,0
		c-0.4,0.6-1.1,1-1.9,1c-0.4,0-0.9-0.1-1.2-0.4c-0.4-0.3-0.6-0.7-0.6-1.2c0-0.2,0-0.5,0.1-0.7c0.1-0.2,0.2-0.3,0.4-0.5
		c0.2-0.1,0.4-0.2,0.6-0.3c0.2-0.1,0.5-0.1,0.8-0.2c0.3,0,0.6-0.1,0.8-0.1L-12.6,6.2z M-12.6,6.8h-0.2c-0.3,0-0.6,0-0.9,0
		c-0.3,0-0.5,0.1-0.8,0.1c-0.2,0-0.5,0.2-0.6,0.3c-0.2,0.2-0.2,0.4-0.2,0.6c0,0.3,0.1,0.6,0.4,0.7c0.3,0.2,0.5,0.2,0.9,0.2
		c0.4,0,0.9-0.2,1.2-0.5c0.3-0.3,0.4-0.8,0.4-1.2L-12.6,6.8z"/>
	<path class="st0" d="M-9.9,5.3c0-0.4,0-0.8,0-1.1h0.7c0,0.4,0,0.6,0,0.9l0,0c0.3-0.6,0.9-1,1.6-1c0.2,0,0.3,0,0.5,0.1l-0.1,0.7
		c-0.2-0.1-0.3-0.1-0.5-0.1c-0.4,0-0.8,0.2-1.1,0.5c-0.3,0.4-0.5,0.9-0.4,1.4v2.6h-0.7L-9.9,5.3z"/>
	<path class="st0" d="M1,9.3C0.6,9.4,0.2,9.5-0.2,9.5c-0.4,0-0.8-0.1-1.2-0.2C-1.7,9.2-1.9,9-2.2,8.8c-0.2-0.2-0.4-0.4-0.5-0.7
		C-2.8,7.8-2.9,7.5-3,7.2C-3,7-3,6.7-3,6.4V1.6h0.8v4.7c0,0.6,0.2,1.2,0.5,1.8c0.4,0.5,1,0.7,1.6,0.7C0.4,8.8,1,8.6,1.4,8.1
		C1.8,7.6,2,7,1.9,6.3V1.6h0.8v4.8c0,0.3,0,0.5-0.1,0.8C2.6,7.5,2.5,7.8,2.3,8.1C2.2,8.3,2.1,8.6,1.8,8.8C1.6,9,1.3,9.2,1,9.3z"/>
	<path class="st0" d="M4.7,4.2h0.7c0,0.4,0,0.6,0,0.9l0,0c0.2-0.3,0.4-0.6,0.7-0.7c0.3-0.2,0.6-0.3,1-0.3c0.5,0,1.1,0.2,1.4,0.6
		c0.4,0.4,0.5,1,0.5,1.5v3.1H8.3V6.5C8.4,6,8.2,5.6,8,5.2C7.8,4.8,7.4,4.7,6.9,4.7c-0.4,0-0.8,0.2-1.1,0.5C5.5,5.6,5.4,6.2,5.4,6.7
		v2.6H4.8v-4C4.8,4.9,4.8,4.5,4.7,4.2z"/>
	<path class="st0" d="M11.9,1.9C12,2,12.1,2.1,12.1,2.3c0,0.1-0.1,0.3-0.2,0.4c-0.1,0.1-0.2,0.2-0.4,0.1c-0.1,0-0.3-0.1-0.4-0.1
		C11.1,2.5,11,2.4,11,2.3c0-0.1,0.1-0.3,0.2-0.4c0.1-0.1,0.2-0.1,0.4-0.1C11.7,1.7,11.8,1.8,11.9,1.9z M11.9,4.2v5.1h-0.7V4.2H11.9z
		"/>
	<path class="st0" d="M18.1,4.2l-2.1,5.1h-0.8l-2.1-5.1H14l1.7,4.3l0,0l1.7-4.3L18.1,4.2z"/>
	<path class="st0" d="M24,6.6c0,0.1,0,0.2,0,0.4h-4.2c0,0.5,0.2,1,0.6,1.3c0.3,0.4,0.8,0.5,1.3,0.5c0.7,0,1.3-0.3,1.6-0.9l0.6,0.4
		c-0.5,0.7-1.3,1.1-2.2,1.1c-0.7,0-1.4-0.3-1.9-0.8c-1-1.1-1-2.7,0-3.8c0.5-0.5,1.1-0.8,1.8-0.8c0.7,0,1.3,0.2,1.8,0.7
		C23.8,5.3,24.1,5.9,24,6.6z M19.8,6.4h3.5c0-0.4-0.2-0.9-0.5-1.2c-0.3-0.3-0.8-0.5-1.2-0.5c-0.5,0-0.9,0.2-1.2,0.5
		C20.1,5.5,19.9,5.9,19.8,6.4z"/>
	<path class="st0" d="M25.7,5.3c0-0.4,0-0.8,0-1.1h0.7c0,0.4,0,0.6,0,0.9l0,0c0.1-0.3,0.4-0.5,0.7-0.7c0.3-0.2,0.6-0.3,1-0.3
		c0.2,0,0.3,0,0.5,0.1l-0.1,0.7c-0.2-0.1-0.3-0.1-0.5-0.1c-0.4,0-0.8,0.2-1.1,0.5c-0.3,0.4-0.5,0.9-0.4,1.4v2.6h-0.7L25.7,5.3z"/>
	<path class="st0" d="M33,5l-0.6,0.4c-0.1-0.2-0.3-0.4-0.5-0.5c-0.2-0.1-0.5-0.2-0.8-0.2c-0.3,0-0.5,0.1-0.8,0.2
		c-0.2,0.1-0.3,0.3-0.3,0.6c0,0.2,0.1,0.4,0.3,0.5c0.3,0.2,0.6,0.3,0.9,0.3c0.5,0.1,0.9,0.3,1.3,0.5c0.3,0.2,0.4,0.6,0.4,1
		c0,0.5-0.2,0.9-0.6,1.2c-0.4,0.3-0.9,0.4-1.3,0.4c-0.8,0-1.6-0.3-2-1L29.8,8c0.1,0.2,0.3,0.4,0.6,0.6c0.5,0.3,1.2,0.3,1.7,0
		c0.2-0.1,0.4-0.4,0.3-0.7c0-0.2-0.1-0.5-0.3-0.6c-0.4-0.2-0.8-0.3-1.2-0.4c-0.2,0-0.3-0.1-0.5-0.1c-0.2-0.1-0.3-0.1-0.5-0.2
		c-0.3-0.2-0.5-0.6-0.5-1c0-0.4,0.2-0.9,0.5-1.1c0.4-0.3,0.8-0.4,1.3-0.4c0.3,0,0.7,0.1,1,0.2C32.6,4.4,32.8,4.7,33,5z"/>
	<path class="st0" d="M35.4,1.9c0.1,0.1,0.2,0.2,0.2,0.4c0,0.3-0.2,0.5-0.5,0.5c0,0,0,0,0,0c-0.1,0-0.3-0.1-0.4-0.1
		c-0.1-0.1-0.2-0.2-0.2-0.4c0-0.1,0.1-0.3,0.2-0.4c0.1-0.1,0.2-0.2,0.4-0.1C35.2,1.7,35.3,1.8,35.4,1.9z M35.4,4.2v5.1h-0.7V4.2
		H35.4z"/>
	<path class="st0" d="M39.8,4.2v0.6h-1.5v3c0,0.3,0,0.5,0.2,0.7c0.2,0.1,0.4,0.2,0.6,0.2c0.2,0,0.4-0.1,0.6-0.2v0.6
		c-0.3,0.1-0.6,0.2-0.9,0.2c-0.3,0-0.7-0.1-0.9-0.3c-0.3-0.3-0.4-0.6-0.4-1V4.8h-1V4.2h1V2.8h0.7v1.4H39.8z"/>
	<path class="st0" d="M41.1,4.2l1.8,4.3l0,0l1.6-4.3h0.8l-2.5,6.4c-0.1,0.4-0.3,0.7-0.6,1c-0.3,0.2-0.6,0.4-1,0.3
		c-0.2,0-0.4,0-0.7-0.1l0.1-0.7c0.2,0.1,0.4,0.1,0.5,0.1c0.2,0,0.4-0.1,0.6-0.2c0.2-0.2,0.3-0.4,0.4-0.7l0.4-1.1l-2.2-5.1L41.1,4.2z
		"/>
</symbol>
<path class="st1" d="M52.5,108.8l-11.9,10.9c1.8,2.5,3.8,4.9,5.9,7.2l6-5.9C52.3,116.6,52.3,112.5,52.5,108.8z"/>
<path class="st1" d="M54.5,91.8l-16.5,14.1c-0.2,3.5-0.1,7,0.2,10.5l1,1.5l13.4-12.2C53,101,53.6,96.4,54.5,91.8z"/>
<path class="st1" d="M48,128.4c1.7,1.8,3.5,3.6,5.4,5.2c-0.4-3.4-0.6-6.7-0.8-9.8L48,128.4z"/>
<path class="st1" d="M55.4,87.7c1.4-5.9,3.4-11.6,6.1-17L42.4,86.5c-2,5.3-3.4,10.8-4.1,16.4l16.9-14.6
	C55.3,88.1,55.4,87.9,55.4,87.7z"/>
<path class="st1" d="M56.7,62.4c-5,6-9.2,12.7-12.5,19.8l18.7-15.3C60.6,65.7,58.5,64.2,56.7,62.4z"/>
<path class="st1" d="M140.6,76.1l0.3-0.4h14.4l1.3-2.8l-1.9-12.1L141.4,58l-6.4,1.1h-18.9l-7.8-3.9H85.6c-15.4-4-24.8,3.2-27.5,5.6
	c5.7,5.2,12,7.5,18.9,6.7l0.2,2.1c-0.9,0.1-1.9,0.2-2.9,0.2c-3,0-6-0.6-8.8-1.7c-1.6,2.4-5.4,9-8.1,20.3
	c-2.4,10.2-4.3,25.8-1.7,47.3c23.3,19.2,54.8,25.3,83.6,16.2l-20-50.6l-4.7,4.2l-34.9-0.1L67.1,90.2l1.7-1.3l12,14.4l33.1,0.1
	l16.4-14.5l-5.1-7.2V65.3h2.2v15.6l4.7,6.6l0.4-0.4h17.8l4.5-4.5l-2.4-2.4v-2.2h-10.5c-2.5,2.5-5.7,4.2-9.2,4.8l-0.2-1.1l-0.1-1.1
	C135.5,80,138.3,78.5,140.6,76.1z M142.8,60.9l2.6,3.2h6.9v2.2h-7.9l-3.3-3.9L142.8,60.9z M100.5,70.4c-2.7,0-4.8-2.2-4.8-4.8
	s2.2-4.8,4.8-4.8s4.8,2.2,4.8,4.8S103.2,70.4,100.5,70.4L100.5,70.4z"/>
<path class="st2" d="M112.4,71.4c2.9-5.4,5.2-11,6.9-16.9c-0.5-0.1-1.1-0.1-1.7-0.2c-1.7,5.6-3.9,11.1-6.7,16.3
	c-0.6,1.1-1.1,2.1-1.7,3.1c0.8-0.3,1.6-0.5,2.4-0.8C111.8,72.4,112.1,71.9,112.4,71.4z"/>
<path class="st2" d="M91,60.1c0.4-0.7,0.7-1.3,1.1-2c-0.8,0.2-1.6,0.5-2.3,0.8l-0.2,0.5c-3.1,5.7-5.5,11.8-7.2,18.1
	c0.6,0,1.1,0.1,1.7,0.1C85.6,71.5,88,65.6,91,60.1z"/>
<path class="st2" d="M87.7,68.1c-0.2,0.6-0.5,1.2-0.7,1.8c2.7,2.4,5.7,4.3,8.9,5.9c3.3,1.7,6.9,2.8,10.6,3.4c0.3-0.5,0.7-1.1,1-1.6
	C100.1,76.4,93.2,73.1,87.7,68.1L87.7,68.1z"/>
<path class="st2" d="M118.3,64.6c-3.3-4.1-7.5-7.4-12.3-9.6c-4.6-2.3-9.6-3.6-14.8-3.8c-5,0-8.5,1.6-10,4.6
	c-1.8,3.7,0.1,8.5,4.4,12.9c0.2-0.6,0.5-1.2,0.8-1.8c-3.4-3.7-5-7.5-3.6-10.3c1.2-2.3,4.2-3.6,8.5-3.6c4.9,0.2,9.7,1.4,14,3.6
	c4.5,2.1,8.5,5.2,11.7,9.1c2.5,3.3,3.2,6.3,2.1,8.6s-4.2,3.6-8.4,3.6c-0.4,0-0.8,0-1.2-0.1c-0.3,0.6-0.7,1.1-1,1.7
	c0.8,0.1,1.6,0.1,2.3,0.1c5,0,8.5-1.6,10-4.6S121.2,68.4,118.3,64.6z"/>
<path class="st2" d="M107.8,76c-7,11.3-15.3,19.3-20.6,19.3c-0.6,0-1.3-0.1-1.8-0.4c-2.9-1.5-3.6-7.3-1.8-15.5
	c-0.6,0-1.2-0.1-1.7-0.1c-1.9,8.6-1.1,15.1,2.7,17.1c0.8,0.4,1.7,0.6,2.6,0.6c6.3,0,15.4-8.8,23-21.8
	C109.5,75.4,108.6,75.7,107.8,76z"/>
<path class="st2" d="M103.2,74.9c-1.4,0.3-2.7,0.6-4.1,0.8c1.1,0.4,2.2,0.8,3.2,1.1c0.4-0.1,0.8-0.2,1.2-0.3
	c5.4-1.2,10.6-3,15.6-5.4c-0.1-0.6-0.3-1.2-0.5-1.7C113.7,71.9,108.5,73.7,103.2,74.9z"/>
<path class="st2" d="M82.1,59.8c0.1,0.6,0.2,1.2,0.4,1.7c5.2-2.6,10.6-4.5,16.2-5.8l2.4-0.5c-1.1-0.4-2.2-0.8-3.3-1.1
	C92.3,55.5,87.1,57.4,82.1,59.8z"/>
<path class="st2" d="M95.9,76.2c-2.9,0.4-5.8,0.6-8.7,0.6c-8.2,0-13.8-1.9-14.5-5c-0.6-2.6,2.4-6.2,8.2-9.5
	c-0.2-0.6-0.4-1.1-0.5-1.7c-6.5,3.7-10.2,7.9-9.4,11.6c0.9,4,6.8,6.3,16.2,6.3c3.9,0,7.8-0.4,11.7-1.1
	C97.9,77.1,96.9,76.7,95.9,76.2z"/>
<path class="st2" d="M130.8,58.4c-0.9-4-6.8-6.3-16.2-6.3c-4.5,0-9,0.5-13.4,1.4c1,0.4,2.1,0.8,3.1,1.2c3.4-0.5,6.9-0.8,10.4-0.8
	c8.2,0,13.8,1.9,14.5,5c0.6,2.3-1.8,5.4-6.4,8.4c-0.8,0.5-1.6,1-2.5,1.5c0.2,0.5,0.4,1.1,0.6,1.7c1-0.6,2-1.1,2.9-1.7
	C129,65.2,131.6,61.6,130.8,58.4z"/>
<path class="st3" d="M105.4,65.5c0,2.7-2.2,4.8-4.8,4.8s-4.8-2.2-4.8-4.8s2.2-4.8,4.8-4.8l0,0C103.2,60.7,105.4,62.8,105.4,65.5z"/>
<path class="st2" d="M93.4,55.9c0.6-1,1.3-2,1.9-3c-0.6-0.1-1.2-0.2-1.9-0.2c-0.8,1.3-1.6,2.6-2.4,4C91.8,56.3,92.6,56.1,93.4,55.9z
	"/>
<path class="st2" d="M96.3,51.3c6.5-9.4,13.7-15.8,18.3-15.8c0.6,0,1.3,0.1,1.8,0.4c3,1.6,3.7,8.1,1.4,17.1c0.6,0,1.1,0.1,1.7,0.2
	c2.4-9.4,1.8-16.7-2.3-18.8c-0.8-0.4-1.7-0.6-2.6-0.6c-5.5,0-13.2,6.8-20.2,17.2C95.1,51,95.7,51.1,96.3,51.3z"/>
<path class="st2" d="M134,109.6V90.5l-9.1,11.4l-9-11.4v19.1h-4.2V82.8h2.4L125,96.4l10.8-13.6h2.4v26.9L134,109.6z"/>
<path class="st2" d="M156.4,94.1V98h-11.4v7.7h12.8v3.9h-16.9V82.8h16.9v3.9h-12.8v7.4H156.4z"/>
<polygon class="st2" points="216,86.9 216,82.8 214.3,82.8 210.1,82.8 208.4,82.8 208.4,86.9 210.1,86.9 210.1,105.5 208.4,105.5 
	208.4,109.6 210.1,109.6 214.3,109.6 216,109.6 216,105.5 214.3,105.5 214.3,86.9 "/>
<path class="st2" d="M170,82.8h-8.7v26.9h4.1v-23h4.8c4,0,7.6,1.9,7.6,6.2c0,3.5-2.6,6-5.3,6c-2,0.2-3.9-0.7-5.2-2.2v4.3
	c1.9,2,5.1,1.8,5.1,1.8c5.1,0,9.3-4.7,9.3-9.9C181.9,86.9,177.2,82.8,170,82.8z"/>
<path class="st2" d="M195.5,89.3c-1.7,0-3.4,0.5-4.8,1.4v4.2c1.1-1,2.6-1.6,4.1-1.5c3.4,0,5.6,1.9,5.6,6.3v10h4.2V99.4
	C204.6,93.2,201.4,89.3,195.5,89.3z"/>
<rect x="184.5" y="82.2" class="st2" width="4.2" height="27.4"/>
<g>
	<defs>
		<rect id="SVGID_1_" x="141.1" y="117.1" width="66" height="17.4"/>
	</defs>
	<clipPath id="SVGID_00000075847626705787049930000006737378004164136882_">
		<use xlink:href="#SVGID_1_"  style="overflow:visible;"/>
	</clipPath>
	<g style="clip-path:url(#SVGID_00000075847626705787049930000006737378004164136882_);">
		
			<use xlink:href="#New_Symbol"  width="90.4" height="23.9" x="-45.2" y="-11.9" transform="matrix(0.73 0 0 0.73 174.0487 125.8536)" style="overflow:visible;"/>
	</g>
</g>
</svg>
